<svg xmlns="http://www.w3.org/2000/svg" xmlns:xlink="http://www.w3.org/1999/xlink" width="500" zoomAndPan="magnify" viewBox="0 0 375 374.999991" height="500" preserveAspectRatio="xMidYMid meet" version="1.0"><defs><clipPath id="1bdb550ac7"><path d="M 24.570312 54 L 350.070312 54 L 350.070312 321.632812 L 24.570312 321.632812 Z M 24.570312 54 " clip-rule="nonzero"/></clipPath></defs><g clip-path="url(#1bdb550ac7)"><path fill="#737373" d="M 120.027344 318.191406 L 171.300781 266.921875 C 173.921875 264.296875 178.195312 264.300781 180.816406 266.921875 L 225.992188 312.097656 C 230.859375 316.964844 238.78125 316.964844 243.648438 312.097656 L 259.351562 296.394531 C 261.710938 294.035156 263.011719 290.898438 263.011719 287.5625 C 263.011719 284.226562 261.710938 281.09375 259.351562 278.734375 L 184.886719 204.269531 C 180.019531 199.402344 172.097656 199.402344 167.230469 204.269531 L 86.667969 284.832031 C 81.796875 289.703125 81.796875 297.621094 86.667969 302.492188 L 102.367188 318.191406 C 104.804688 320.628906 108 321.847656 111.199219 321.847656 C 114.394531 321.847656 117.59375 320.628906 120.027344 318.191406 Z M 331.0625 283.273438 L 346.765625 267.570312 C 349.125 265.210938 350.421875 262.074219 350.421875 258.742188 C 350.421875 255.40625 349.125 252.269531 346.765625 249.910156 L 243.007812 146.152344 C 238.136719 141.285156 230.21875 141.285156 225.347656 146.152344 L 209.644531 161.855469 C 204.777344 166.722656 204.777344 174.648438 209.644531 179.511719 L 313.40625 283.273438 C 315.835938 285.707031 319.03125 286.925781 322.234375 286.925781 C 325.429688 286.925781 328.628906 285.707031 331.0625 283.273438 Z M 52.761719 263.414062 C 49.425781 263.414062 46.292969 262.117188 43.933594 259.757812 L 28.230469 244.054688 C 25.871094 241.695312 24.574219 238.5625 24.574219 235.226562 C 24.574219 231.890625 25.871094 228.757812 28.230469 226.398438 L 196.609375 58.015625 C 201.476562 53.148438 209.398438 53.148438 214.269531 58.015625 L 229.96875 73.722656 C 234.839844 78.589844 234.839844 86.511719 229.96875 91.378906 L 61.59375 259.757812 C 59.234375 262.117188 56.097656 263.414062 52.761719 263.414062 " fill-opacity="1" fill-rule="nonzero"/></g></svg>